<svg width="61" height="45" viewBox="0 0 61 45" fill="none" xmlns="http://www.w3.org/2000/svg">
<path d="M60.3984 16.9873C60.233 16.8522 58.6885 15.6534 55.4315 15.6534C54.5715 15.6572 53.7133 15.7331 52.8652 15.8802C52.2349 11.4383 48.6627 9.27259 48.5025 9.17543L47.6279 8.65692L47.0527 9.51025C46.3323 10.6565 45.8064 11.9202 45.4978 13.2474C44.9146 15.783 45.2692 18.1646 46.5221 20.2006C45.0092 21.0674 42.5822 21.2807 42.0911 21.2996H1.90946C0.859928 21.3011 0.00828227 22.173 0.00256252 23.2519C-0.0443053 26.8708 0.552086 30.468 1.76237 33.8666C3.14655 37.5984 5.20583 40.3473 7.88498 42.0295C10.8872 43.9197 15.7648 44.9998 21.2937 44.9998C23.7915 45.0079 26.2845 44.7755 28.7402 44.3059C32.1537 43.6615 35.4385 42.4349 38.4585 40.6766C40.947 39.1952 43.1865 37.3105 45.0907 35.0952C48.2741 31.3904 50.1706 27.2644 51.581 23.5975H52.1431C55.6286 23.5975 57.7719 22.1636 58.9539 20.962C59.7393 20.1957 60.3526 19.2621 60.7505 18.2267L61 17.4761L60.3984 16.9873Z" fill="#2496ED"/>
<path d="M5.63395 20.0899H11.0185C11.2782 20.0899 11.4886 19.8735 11.4886 19.6066V14.6759C11.49 14.4089 11.2807 14.1913 11.0211 14.1898C11.0203 14.1898 11.0193 14.1898 11.0185 14.1898H5.63395C5.37425 14.1898 5.16382 14.4062 5.16382 14.6731V14.6759V19.6065C5.16382 19.8735 5.37425 20.0899 5.63395 20.0899Z" fill="#2496ED"/>
<path d="M13.0541 20.0899H18.4386C18.6983 20.0899 18.9088 19.8735 18.9088 19.6066V14.6759C18.9102 14.4089 18.7009 14.1913 18.4412 14.1898C18.4403 14.1898 18.4394 14.1898 18.4386 14.1898H13.054C12.7929 14.1898 12.5813 14.4074 12.5813 14.6759V19.6065C12.5828 19.8739 12.794 20.0899 13.0541 20.0899Z" fill="#2496ED"/>
<path d="M20.5871 20.0899H25.9716C26.2313 20.0899 26.4417 19.8735 26.4417 19.6066V14.6759C26.4432 14.4089 26.2339 14.1913 25.9742 14.1898C25.9733 14.1898 25.9724 14.1898 25.9715 14.1898H20.587C20.3273 14.1898 20.1169 14.4062 20.1169 14.6731V14.6759V19.6065C20.117 19.8735 20.3275 20.0899 20.5871 20.0899Z" fill="#2496ED"/>
<path d="M28.0309 20.0899H33.4154C33.6755 20.0899 33.8867 19.874 33.8882 19.6066V14.6759C33.8882 14.4074 33.6765 14.1898 33.4154 14.1898H28.0309C27.7712 14.1898 27.5608 14.4062 27.5608 14.6731V14.6759V19.6065C27.5608 19.8735 27.7713 20.0899 28.0309 20.0899Z" fill="#2496ED"/>
<path d="M13.0541 12.9963H18.4386C18.6986 12.9948 18.9087 12.7776 18.9087 12.5103V7.57963C18.9087 7.31265 18.6982 7.09631 18.4386 7.09631H13.0541C12.794 7.09631 12.5828 7.31221 12.5813 7.57963V12.5103C12.5828 12.7782 12.7935 12.9948 13.0541 12.9963Z" fill="#2496ED"/>
<path d="M20.5871 12.9963H25.9716C26.2316 12.9948 26.4417 12.7776 26.4417 12.5103V7.57963C26.4417 7.31265 26.2312 7.09631 25.9716 7.09631H20.5871C20.3274 7.09631 20.1169 7.31274 20.1169 7.57963V12.5103C20.1169 12.7776 20.327 12.9948 20.5871 12.9963Z" fill="#2496ED"/>
<path d="M28.0309 12.9963H33.4154C33.6759 12.9948 33.8867 12.7782 33.8882 12.5103V7.57963C33.8867 7.31221 33.6755 7.09631 33.4154 7.09631H28.0309C27.7712 7.09631 27.5608 7.31274 27.5608 7.57963V12.5103C27.5608 12.7776 27.7709 12.9948 28.0309 12.9963Z" fill="#2496ED"/>
<path d="M28.0309 5.90011H33.4154C33.6755 5.90011 33.8867 5.68412 33.8882 5.41679V0.483316C33.8867 0.215899 33.6755 0 33.4154 0H28.0309C27.7712 0 27.5608 0.216338 27.5608 0.483316V5.41671C27.5608 5.68368 27.7713 5.90011 28.0309 5.90011Z" fill="#2496ED"/>
<path d="M35.5403 20.0899H40.9248C41.185 20.0899 41.3962 19.874 41.3976 19.6066V14.6759C41.3976 14.4074 41.186 14.1898 40.9248 14.1898H35.5403C35.2807 14.1898 35.0702 14.4062 35.0702 14.6731V14.6759V19.6065C35.0702 19.8735 35.2807 20.0899 35.5403 20.0899Z" fill="#2496ED"/>
</svg>
