<svg width="27" height="27" viewBox="0 0 27 27" fill="none" xmlns="http://www.w3.org/2000/svg">
<path d="M10.125 21.375C4.5 23.0625 4.5 18.5625 2.25 18M18 24.75V20.3962C18.0422 19.8598 17.9697 19.3205 17.7874 18.8143C17.6051 18.308 17.317 17.8463 16.9425 17.46C20.475 17.0662 24.1875 15.7275 24.1875 9.585C24.1872 8.0143 23.583 6.50385 22.5 5.36625C23.0128 3.99207 22.9766 2.47314 22.3987 1.125C22.3987 1.125 21.0713 0.731248 18 2.79C15.4215 2.09117 12.7035 2.09117 10.125 2.79C7.05375 0.731248 5.72625 1.125 5.72625 1.125C5.14842 2.47314 5.11216 3.99207 5.625 5.36625C4.53389 6.51229 3.92909 8.03639 3.9375 9.61875C3.9375 15.7162 7.65 17.055 11.1825 17.4937C10.8124 17.8762 10.5269 18.3323 10.3447 18.8324C10.1625 19.3325 10.0877 19.8653 10.125 20.3962V24.75" stroke="white" stroke-linecap="round" stroke-linejoin="round"/>
</svg>
