<svg width="27" height="27" viewBox="0 0 27 27" fill="none" xmlns="http://www.w3.org/2000/svg">
<path d="M25.4812 16.1888L13.5 24.8963L1.51875 16.1888C1.35813 16.0706 1.23898 15.9047 1.17836 15.7148C1.11774 15.5248 1.11875 15.3206 1.18125 15.1313L2.55375 10.8788L5.29875 2.43C5.32537 2.36116 5.36776 2.29951 5.4225 2.25C5.51164 2.16858 5.62801 2.12343 5.74875 2.12343C5.86948 2.12343 5.98585 2.16858 6.075 2.25C6.1328 2.30587 6.1754 2.37557 6.19875 2.4525L8.94375 10.8788H18.0562L20.8012 2.43C20.8279 2.36116 20.8703 2.29951 20.925 2.25C21.0141 2.16858 21.1305 2.12343 21.2512 2.12343C21.372 2.12343 21.4884 2.16858 21.5775 2.25C21.6353 2.30587 21.6779 2.37557 21.7013 2.4525L24.4462 10.9013L25.875 15.1313C25.9318 15.3264 25.9242 15.5347 25.8533 15.7252C25.7824 15.9157 25.6519 16.0783 25.4812 16.1888V16.1888Z" stroke="white" stroke-linecap="round" stroke-linejoin="round"/>
</svg>
