<svg width="61" height="61" viewBox="0 0 61 61" fill="none" xmlns="http://www.w3.org/2000/svg">
<path d="M61 0H0V61H61V0Z" fill="#F7DF1E"/>
<path d="M40.9765 47.6565C42.2052 49.6628 43.8038 51.1374 46.6311 51.1374C49.0062 51.1374 50.5235 49.9503 50.5235 48.3101C50.5235 46.3446 48.9646 45.6484 46.3503 44.5049L44.9173 43.89C40.7809 42.1278 38.033 39.9202 38.033 35.2532C38.033 30.9542 41.3086 27.6815 46.4278 27.6815C50.0723 27.6815 52.6924 28.9499 54.5805 32.271L50.1168 35.137C49.134 33.3748 48.0738 32.6806 46.4278 32.6806C44.7488 32.6806 43.6847 33.7456 43.6847 35.137C43.6847 36.8566 44.7498 37.5528 47.2091 38.6179L48.6422 39.2318C53.5125 41.3203 56.2623 43.4495 56.2623 48.2365C56.2623 53.3973 52.2082 56.2246 46.7637 56.2246C41.4403 56.2246 38.0011 53.6878 36.3182 50.3628L40.9765 47.6565ZM20.7274 48.1533C21.6279 49.7509 22.447 51.1016 24.4164 51.1016C26.2997 51.1016 27.4878 50.3647 27.4878 47.4997V28.0087H33.2198V47.5771C33.2198 53.5125 29.7399 56.214 24.6604 56.214C20.0709 56.214 17.4131 53.8388 16.0614 50.9781L20.7274 48.1533Z" fill="black"/>
</svg>
