<svg width="27" height="27" viewBox="0 0 27 27" fill="none" xmlns="http://www.w3.org/2000/svg">
<path d="M18 9C19.7902 9 21.5071 9.71116 22.773 10.977C24.0388 12.2429 24.75 13.9598 24.75 15.75V23.625H20.25V15.75C20.25 15.1533 20.0129 14.581 19.591 14.159C19.169 13.7371 18.5967 13.5 18 13.5C17.4033 13.5 16.831 13.7371 16.409 14.159C15.9871 14.581 15.75 15.1533 15.75 15.75V23.625H11.25V15.75C11.25 13.9598 11.9612 12.2429 13.227 10.977C14.4929 9.71116 16.2098 9 18 9V9Z" stroke="white" stroke-linecap="round" stroke-linejoin="round"/>
<path d="M6.75 10.125H2.25V23.625H6.75V10.125Z" stroke="white" stroke-linecap="round" stroke-linejoin="round"/>
<path d="M4.5 6.75C5.74264 6.75 6.75 5.74264 6.75 4.5C6.75 3.25736 5.74264 2.25 4.5 2.25C3.25736 2.25 2.25 3.25736 2.25 4.5C2.25 5.74264 3.25736 6.75 4.5 6.75Z" stroke="white" stroke-linecap="round" stroke-linejoin="round"/>
</svg>
