<svg width="25" height="25" viewBox="0 0 25 25" fill="none" xmlns="http://www.w3.org/2000/svg">
<path d="M10.6685 13.6969C11.0979 14.271 11.6458 14.7461 12.275 15.0898C12.9042 15.4336 13.6 15.638 14.3151 15.6892C15.0303 15.7404 15.748 15.6373 16.4198 15.3867C17.0916 15.1361 17.7016 14.744 18.2085 14.2369L21.2085 11.2369C22.1192 10.2939 22.6232 9.03087 22.6118 7.71989C22.6004 6.40891 22.0746 5.15484 21.1476 4.2278C20.2205 3.30076 18.9664 2.77492 17.6555 2.76353C16.3445 2.75213 15.0815 3.25611 14.1385 4.1669L12.4185 5.8769" stroke="white" stroke-width="2" stroke-linecap="round" stroke-linejoin="round"/>
<path d="M14.6684 11.6969C14.239 11.1228 13.6911 10.6477 13.0619 10.304C12.4327 9.96021 11.7369 9.75579 11.0218 9.70458C10.3066 9.65336 9.58883 9.75654 8.91707 10.0071C8.24531 10.2577 7.6353 10.6498 7.12841 11.1569L4.12841 14.1569C3.21762 15.0999 2.71365 16.3629 2.72504 17.6739C2.73643 18.9849 3.26228 20.239 4.18932 21.166C5.11636 22.093 6.37042 22.6189 7.68141 22.6303C8.99239 22.6417 10.2554 22.1377 11.1984 21.2269L12.9084 19.5169" stroke="white" stroke-width="2" stroke-linecap="round" stroke-linejoin="round"/>
</svg>
