<svg width="800" height="456" viewBox="0 0 800 456" fill="none" xmlns="http://www.w3.org/2000/svg">
<path d="M225.628 0.875C350.239 0.875 451.248 102.589 451.248 228.051C451.248 353.513 350.231 455.22 225.628 455.22C101.024 455.22 0 353.513 0 228.051C0 102.589 101.017 0.875 225.628 0.875ZM585.939 14.1824C648.245 14.1824 698.753 109.925 698.753 228.051H698.761C698.761 346.147 648.253 441.92 585.947 441.92C523.642 441.92 473.133 346.147 473.133 228.051C473.133 109.956 523.634 14.1824 585.939 14.1824ZM760.323 36.4585C782.231 36.4585 800 122.236 800 228.051C800 333.836 782.239 419.644 760.323 419.644C738.407 419.644 720.654 333.859 720.654 228.051C720.654 122.244 738.415 36.4585 760.323 36.4585Z" fill="white"/>
</svg>
