<svg width="40" height="89" viewBox="0 0 40 89" fill="none" xmlns="http://www.w3.org/2000/svg">
<path d="M19.7095 0.243103L22.0845 4.7039C22.6185 5.52708 23.1969 6.25572 23.8783 6.93429C25.8759 8.90696 27.7378 11.0124 29.4515 13.2361C33.4757 18.5201 36.19 24.3881 38.1284 30.7345C39.2909 34.6112 39.9222 38.5881 39.9694 42.6095C40.1641 54.632 36.0426 64.9552 27.7328 73.5347C26.3811 74.8952 24.9209 76.1434 23.3666 77.2669C22.5434 77.2669 22.154 76.6356 21.8147 76.0543C21.1969 74.9765 20.7856 73.7928 20.6022 72.5641C20.3102 71.1096 20.1183 69.6551 20.2128 68.1534V67.4748C20.1461 67.3302 19.4202 0.585171 19.7095 0.243103Z" fill="#599636"/>
<path d="M19.7095 0.0956763C19.6122 -0.0989968 19.5148 0.0483985 19.4175 0.142954C19.4648 1.11632 19.1255 1.98401 18.5943 2.81276C18.0103 3.63595 17.2372 4.26724 16.4612 4.94582C12.1506 8.67798 8.75773 13.1861 6.04065 18.2281C2.42529 25.0138 0.561985 32.2863 0.0335859 39.9425C-0.208365 42.7041 0.906835 52.4488 1.7773 55.2605C4.15232 62.7248 8.41845 68.9794 13.9444 74.408C15.3015 75.7151 16.7532 76.9276 18.255 78.0929C18.6916 78.0929 18.7389 77.7035 18.839 77.4143C19.0305 76.7954 19.1764 76.1633 19.2757 75.5232L20.249 68.2535L19.7095 0.0956763Z" fill="#6CAC48"/>
<path d="M22.0845 80.2203C22.1818 79.1078 22.7158 78.1845 23.2971 77.264C22.713 77.0221 22.2792 76.541 21.9399 76.0042C21.6473 75.496 21.4052 74.9604 21.2168 74.4051C20.5382 72.3694 20.3936 70.2336 20.199 68.1534V66.8936C19.957 67.0882 19.9069 68.7346 19.9069 68.9793C19.7654 71.1779 19.4737 73.3643 19.0337 75.5231C18.8891 76.3963 18.7917 77.2668 18.255 78.0427C18.255 78.14 18.255 78.2374 18.3023 78.382C19.1755 80.9517 19.4147 83.5686 19.5621 86.2356V87.209C19.5621 88.3715 19.5148 88.1267 20.4798 88.5161C20.8692 88.6607 21.303 88.7107 21.6924 89C21.9844 89 22.0317 88.758 22.0317 88.5633L21.8871 86.9643V82.5035C21.8398 81.7248 21.9844 80.9517 22.0817 80.223L22.0845 80.2203Z" fill="#C2BFBF"/>
</svg>
