<svg width="100" height="61" viewBox="0 0 100 61" fill="none" xmlns="http://www.w3.org/2000/svg">
<path d="M23.5958 15.659H42.4567V17.1509H25.3247V28.3794H41.4351V29.8713H25.3247V42.199H42.6532V43.6909H23.5958V15.659ZM44.1463 15.659H46.1503L55.0306 27.9868L64.1074 15.659L76.4534 0L56.1701 29.2824L66.6222 43.6909H64.5397L55.0306 30.5779L45.4823 43.6909H43.439L53.9697 29.2824L44.1463 15.659ZM67.3688 17.1509V15.659H88.8624V17.1509H78.9604V43.6909H77.2315V17.1509H67.3688Z" fill="black"/>
<path d="M0 15.6591H2.16115L31.9621 60.0391L19.6468 43.6909L1.8075 17.7791L1.72892 43.6909H0V15.6591Z" fill="black"/>
<path d="M88.6882 41.7487C89.0457 41.7487 89.3064 41.4764 89.3064 41.1244C89.3064 40.7724 89.0457 40.5 88.6882 40.5C88.335 40.5 88.0701 40.7724 88.0701 41.1244C88.0701 41.4764 88.335 41.7487 88.6882 41.7487ZM90.3871 40.1061C90.3871 41.1453 91.1398 41.8242 92.2373 41.8242C93.4064 41.8242 94.1128 41.1244 94.1128 39.9092V35.6308H93.1709V39.905C93.1709 40.5796 92.8303 40.94 92.2289 40.94C91.6907 40.94 91.3248 40.6048 91.3122 40.1061H90.3871ZM95.3449 40.0516C95.4122 41.1328 96.3163 41.8242 97.662 41.8242C99.1001 41.8242 100 41.0992 100 39.9427C100 39.0334 99.487 38.5305 98.2423 38.2414L97.5736 38.078C96.7831 37.8936 96.4635 37.6464 96.4635 37.2148C96.4635 36.67 96.9597 36.3138 97.704 36.3138C98.4105 36.3138 98.8983 36.6616 98.9866 37.2189H99.9033C99.8486 36.2007 98.9487 35.4841 97.7166 35.4841C96.392 35.4841 95.5089 36.2007 95.5089 37.2776C95.5089 38.166 96.0093 38.694 97.1069 38.9496L97.889 39.1381C98.6922 39.3267 99.0454 39.6033 99.0454 40.0642C99.0454 40.6006 98.4904 40.9903 97.7334 40.9903C96.9219 40.9903 96.3584 40.6257 96.2785 40.0516H95.3449Z" fill="black"/>
</svg>
