<svg width="61" height="69" viewBox="0 0 61 69" fill="none" xmlns="http://www.w3.org/2000/svg">
<path d="M27.7478 0.736133C29.4145 -0.243165 31.5855 -0.247588 33.2508 0.736133C41.629 5.59551 50.0097 10.4473 58.3864 15.3096C59.962 16.2206 61.0159 18.0204 60.9998 19.8839V49.1198C61.0116 51.0605 59.8535 52.9033 58.1913 53.7937C49.8407 58.6263 41.4944 63.4647 33.1452 68.2973C31.444 69.2958 29.2295 69.2189 27.5814 68.1386C25.0779 66.6489 22.5701 65.1665 20.0663 63.6783C19.5547 63.3652 18.978 63.116 18.6167 62.6068C18.9361 62.165 19.507 62.1099 19.971 61.917C21.016 61.5759 21.9758 61.0284 22.9359 60.4971C23.1786 60.3266 23.475 60.3919 23.7077 60.5445C25.8485 61.8045 27.9704 63.101 30.1184 64.3489C30.5766 64.6205 31.0406 64.26 31.4323 64.0359C39.6268 59.2819 47.8313 54.5459 56.0244 49.7905C56.328 49.6406 56.4958 49.3098 56.4712 48.9684C56.4769 39.3241 56.4726 29.6781 56.474 20.0338C56.5087 19.6465 56.2904 19.2904 55.9492 19.1319C47.6276 14.3215 39.3103 9.50361 30.9901 4.69191C30.8459 4.59018 30.6752 4.5356 30.5002 4.53533C30.3253 4.53507 30.1544 4.58914 30.0099 4.69043C21.6897 9.50361 13.3739 14.3259 5.05366 19.1361C4.7137 19.2949 4.48554 19.6451 4.526 20.0338C4.52744 29.6781 4.526 39.3241 4.526 48.9699C4.51158 49.1365 4.54721 49.3035 4.62811 49.4487C4.70901 49.5938 4.83129 49.71 4.97849 49.7816C7.19877 51.074 9.42193 52.3573 11.6436 53.6452C12.8953 54.3368 14.432 54.7476 15.811 54.2178C17.028 53.7698 17.881 52.4951 17.8578 51.1688C17.8692 41.5808 17.852 31.9913 17.8664 22.4048C17.836 21.9791 18.2293 21.6275 18.6325 21.6675C19.6993 21.6602 20.7675 21.6528 21.8343 21.6705C22.2796 21.6602 22.5861 22.1185 22.531 22.5473C22.5267 32.196 22.5425 41.845 22.5238 51.4937C22.5267 54.0652 21.4975 56.8633 19.1803 58.1215C16.3255 59.6395 12.7971 59.3175 9.97688 57.862C7.53538 56.6111 5.20545 55.1349 2.80728 53.7949C1.14075 52.9095 -0.011525 51.0592 0.00020606 49.1201V19.8839C-0.0172708 17.9818 1.07851 16.1493 2.70314 15.2516C11.0523 10.4151 19.4 5.57487 27.7478 0.736133Z" fill="#8CC84B"/>
<path d="M35.0315 20.9881C38.673 20.7475 42.5713 20.8455 45.8481 22.6869C48.3851 24.098 49.7916 27.0595 49.8364 29.9526C49.7655 30.3429 49.3681 30.5581 49.0052 30.5314C47.9486 30.5299 46.8919 30.5461 45.8354 30.524C45.3872 30.5417 45.1267 30.1175 45.0705 29.7108C44.7669 28.3265 44.0314 26.9555 42.7621 26.2878C40.8135 25.2864 38.5542 25.3368 36.4295 25.3577C34.8783 25.4422 33.2104 25.5801 31.8962 26.5164C30.8874 27.2256 30.5809 28.6573 30.941 29.8103C31.2805 30.6383 32.2115 30.9054 32.9733 31.1516C37.3617 32.3297 42.012 32.2125 46.3166 33.7629C48.0988 34.395 49.8421 35.6237 50.4521 37.539C51.2501 40.1061 50.9003 43.1745 49.121 45.2353C47.6781 46.9312 45.5766 47.8542 43.4805 48.3556C40.6921 48.9938 37.7984 49.01 34.9667 48.7266C32.3039 48.415 29.533 47.697 27.4775 45.8347C25.7197 44.2681 24.8612 41.8271 24.9464 39.4711C24.9668 39.0732 25.3527 38.7958 25.724 38.8285C26.788 38.8196 27.8519 38.8167 28.9158 38.8299C29.3408 38.7987 29.6558 39.1757 29.6776 39.5868C29.8739 40.9058 30.3568 42.2901 31.4773 43.072C33.6396 44.504 36.3528 44.4059 38.8288 44.446C40.8801 44.3526 43.1827 44.3243 44.8567 42.9327C45.7398 42.1389 46.0015 40.8109 45.7628 39.6684C45.5043 38.7039 44.5213 38.2544 43.6771 37.9605C39.345 36.5538 34.6427 37.0643 30.3525 35.4735C28.6108 34.8417 26.9266 33.6472 26.2574 31.8105C25.3237 29.211 25.7516 25.9956 27.7173 24.0043C29.6341 22.0236 32.4009 21.2608 35.0315 20.9878V20.9881Z" fill="#8CC84B"/>
</svg>
