<svg width="65" height="61" viewBox="0 0 65 61" fill="none" xmlns="http://www.w3.org/2000/svg">
<path d="M32.5 35.8779C35.6393 35.8779 38.1841 33.4702 38.1841 30.5C38.1841 27.5299 35.6393 25.1221 32.5 25.1221C29.3608 25.1221 26.8159 27.5299 26.8159 30.5C26.8159 33.4702 29.3608 35.8779 32.5 35.8779Z" fill="#61DAFB"/>
<path d="M32.5 41.5182C49.3447 41.5182 63 36.5852 63 30.5C63 24.4149 49.3447 19.4819 32.5 19.4819C15.6553 19.4819 2 24.4149 2 30.5C2 36.5852 15.6553 41.5182 32.5 41.5182Z" stroke="#61DAFB" stroke-width="3"/>
<path d="M22.4147 36.0091C30.837 49.8112 42.18 58.5335 47.75 55.4909C53.3199 52.4483 51.0076 38.793 42.5852 24.9909C34.1629 11.1888 22.8199 2.46649 17.25 5.50907C11.68 8.55165 13.9924 22.207 22.4147 36.0091Z" stroke="#61DAFB" stroke-width="3"/>
<path d="M22.4147 24.9909C13.9924 38.793 11.6801 52.4483 17.25 55.4909C22.8199 58.5335 34.1629 49.8112 42.5852 36.0091C51.0076 22.2069 53.3199 8.55163 47.75 5.50906C42.1801 2.46648 30.8371 11.1888 22.4147 24.9909Z" stroke="#61DAFB" stroke-width="3"/>
</svg>
