<svg width="63" height="61" viewBox="0 0 63 61" fill="none" xmlns="http://www.w3.org/2000/svg">
<path d="M43.6523 42.6019C45.9772 42.3564 47.7409 40.3124 47.6607 37.8591C47.5807 35.4062 45.5763 33.4437 43.1712 33.4437H43.011C40.5255 33.5255 38.6015 35.6514 38.6817 38.1862C38.762 39.4128 39.2428 40.4757 39.9644 41.2117C37.2387 46.6903 33.0698 50.697 26.8166 54.0495C22.5675 56.339 18.1583 57.1568 13.749 56.5845C10.1413 56.0938 7.33531 54.4586 5.57131 51.7599C3.00603 47.7533 2.7656 43.4194 4.93024 39.0857C6.45356 35.9784 8.85839 33.6889 10.3817 32.5441C10.061 31.4811 9.57993 29.6823 9.3395 28.3741C-2.28523 36.9598 -1.08257 48.571 2.44494 54.0495C5.09045 58.1382 10.4619 60.673 16.3945 60.673C17.9978 60.673 19.6011 60.5093 21.2047 60.1007C31.4665 58.0564 39.2431 51.8417 43.6523 42.6019ZM57.7624 32.4625C51.6693 25.185 42.6904 21.1783 32.4285 21.1783H31.1459C30.4243 19.7065 28.901 18.7251 27.2175 18.7251H27.057C24.572 18.807 22.648 20.9329 22.728 23.4679C22.8082 25.9209 24.8124 27.8834 27.2175 27.8834H27.3777C29.1414 27.8016 30.6647 26.6568 31.3061 25.1031H32.7492C38.8422 25.1031 44.6143 26.902 49.8256 30.4182C53.834 33.1166 56.7202 36.6328 58.3235 40.8846C59.6863 44.319 59.6061 47.6715 58.163 50.5336C55.9184 54.8672 52.1505 57.2386 47.1799 57.2386C43.973 57.2386 40.9266 56.2572 39.3231 55.5213C38.4413 56.339 36.8378 57.6472 35.7153 58.4652C39.1629 60.1004 42.6904 61 46.0574 61C53.7538 61 59.4459 56.6661 61.6105 52.3324C63.9354 47.5897 63.7749 39.4128 57.7624 32.4625ZM17.0358 43.9917C17.1161 46.4449 19.1202 48.4071 21.5253 48.4071H21.6858C24.1711 48.3256 26.095 46.1994 26.0148 43.6646C25.9348 41.2114 23.9304 39.2491 21.5253 39.2491H21.3651C21.2047 39.2491 20.964 39.2491 20.804 39.3307C17.5169 33.7704 16.1541 27.7197 16.6352 21.1781C16.9556 16.2719 18.5592 12.0198 21.3651 8.50367C23.69 5.47819 28.1795 4.00636 31.2261 3.92479C39.724 3.76114 43.3314 14.5546 43.5721 18.8885C44.6143 19.1338 46.3781 19.7063 47.5807 20.1151C46.6185 6.86869 38.6015 0 30.9054 0C23.69 0 17.0358 5.31504 14.3901 13.1649C10.7024 23.6313 13.1074 33.6889 17.5969 41.6205C17.1963 42.1928 16.9556 43.0924 17.0358 43.9919V43.9917Z" fill="#764ABC"/>
</svg>
