<svg width="61" height="61" viewBox="0 0 61 61" fill="none" xmlns="http://www.w3.org/2000/svg">
<path d="M0 0H61V61H0V0Z" fill="#017ACB"/>
<path d="M29.2895 22.5891H32.2156V27.6406H24.3047V50.1153L24.095 50.1725C23.8091 50.2488 20.0442 50.2487 19.2341 50.163L18.5859 50.1058V27.6406H10.675V22.5891L13.1817 22.5605C14.5542 22.5414 18.0808 22.5414 21.0164 22.5605C23.952 22.5795 27.6692 22.5891 29.2895 22.5891ZM51.6213 47.7325C50.4585 48.962 49.2099 49.6483 47.1321 50.2106C46.2266 50.4584 46.0741 50.468 44.0344 50.4584C41.9947 50.4489 41.8327 50.4489 40.8414 50.1916C38.2775 49.5339 36.2093 48.2472 34.7986 46.4267C34.3983 45.912 33.7407 44.8445 33.7407 44.7111C33.7407 44.673 33.836 44.5872 33.9599 44.53C34.0838 44.4728 34.3411 44.3108 34.5508 44.1869C34.7605 44.063 35.1417 43.8342 35.3991 43.7008C35.6564 43.5673 36.3999 43.1289 37.048 42.7381C37.6961 42.3473 38.2871 42.0328 38.3538 42.0328C38.4205 42.0328 38.5444 42.1663 38.6397 42.3283C39.2116 43.2909 40.546 44.5205 41.4896 44.9398C42.071 45.1877 43.3577 45.4641 43.9772 45.4641C44.5491 45.4641 45.5975 45.2163 46.1599 44.9589C46.7604 44.6825 47.0654 44.4061 47.4276 43.8533C47.6754 43.4625 47.704 43.3577 47.6944 42.6142C47.6944 41.928 47.6563 41.7373 47.4657 41.4228C46.9319 40.5459 46.2076 40.0884 43.2719 38.7922C40.241 37.4483 38.878 36.6477 37.7724 35.5706C36.9527 34.77 36.7907 34.5508 36.276 33.55C35.6088 32.2633 35.523 31.8439 35.5135 29.9281C35.5039 28.5842 35.5325 28.1458 35.6755 27.6883C35.8757 27.002 36.5238 25.6772 36.8193 25.3436C37.4293 24.6288 37.6485 24.4095 38.0774 24.0569C39.3736 22.9894 41.3943 22.2841 43.3291 22.2173C43.5483 22.2173 44.2727 22.2555 44.9494 22.3031C46.8938 22.4652 48.2186 22.9417 49.4958 23.9616C50.4585 24.7241 51.9168 26.5159 51.7738 26.7542C51.6785 26.8972 47.8755 29.4325 47.6277 29.5088C47.4752 29.5564 47.3704 29.4992 47.1607 29.2514C45.8644 27.6978 45.3402 27.3642 44.0821 27.288C43.1861 27.2308 42.7096 27.3356 42.1091 27.7359C41.48 28.1553 41.175 28.7939 41.175 29.6803C41.1846 30.9766 41.6802 31.5866 43.5102 32.492C44.6921 33.0734 45.7024 33.55 45.7786 33.55C45.893 33.55 48.3426 34.77 48.9811 35.1512C51.9549 36.8955 53.1654 38.6873 53.4799 41.7755C53.7087 44.1011 53.051 46.2266 51.6213 47.7325Z" fill="white"/>
</svg>
