<svg width="27" height="27" viewBox="0 0 27 27" fill="none" xmlns="http://www.w3.org/2000/svg">
<path d="M25.875 3.375C24.7977 4.13491 23.6049 4.71612 22.3425 5.09625C21.665 4.3172 20.7645 3.76503 19.7629 3.51442C18.7613 3.2638 17.7069 3.32684 16.7423 3.69501C15.7777 4.06317 14.9495 4.7187 14.3696 5.57293C13.7897 6.42716 13.4862 7.43888 13.5 8.47125V9.59625C11.523 9.64751 9.56393 9.20904 7.79738 8.31988C6.03084 7.43071 4.51161 6.11846 3.375 4.5C3.375 4.5 -1.125 14.625 9 19.125C6.68309 20.6977 3.92305 21.4863 1.125 21.375C11.25 27 23.625 21.375 23.625 8.4375C23.624 8.12413 23.5938 7.81154 23.535 7.50375C24.6832 6.37143 25.4934 4.9418 25.875 3.375V3.375Z" stroke="white" stroke-linecap="round" stroke-linejoin="round"/>
</svg>
